<svg xmlns="http://www.w3.org/2000/svg" width="620" height="480" viewBox="0 0 620 480" font-family="Segoe UI, Malgun Gothic, sans-serif">
  <rect width="620" height="480" fill="#ffffff"/>
  <title>Recent chats with persistent session flags</title>
  <defs>
    <g id="session-flag" fill="#b40000">
      <path d="M2 2C7-.2 11 4 18 1.5V14.5C11 17 7 12.8 2 15Z"/>
      <path d="M1.1 2V21" fill="none" stroke="#b40000" stroke-width="2.2" stroke-linecap="round"/>
    </g>
  </defs>
  <rect x="20" y="20" width="580" height="398" rx="18" fill="#ffffff" stroke="#e6e6e8"/>
  <text x="42" y="55" font-size="15" fill="#202123">Chats</text>
  <text x="578" y="55" text-anchor="end" font-size="12" fill="#77787b">New chat</text>
  <g font-size="14" fill="#202123">
    <rect x="32" y="78" width="556" height="46" rx="12" fill="#eceaea"/>
    <rect x="32" y="132" width="556" height="46" rx="12" fill="#ffffff"/>
    <rect x="32" y="186" width="556" height="46" rx="12" fill="#ffffff"/>
    <rect x="32" y="240" width="556" height="46" rx="12" fill="#ffffff"/>
    <rect x="32" y="294" width="556" height="46" rx="12" fill="#ffffff"/>
    <rect x="32" y="348" width="556" height="46" rx="12" fill="#ffffff"/>
    <text x="46" y="108">Add flag toggle to session list</text>
    <text x="46" y="162">Parallelize build verification</text>
    <text x="46" y="216">Review Linux and macOS support</text>
    <text x="46" y="270">Refactor usage gauge layout</text>
    <text x="46" y="324">Draft release notes</text>
    <text x="46" y="378">Investigate reload recovery</text>
  </g>
  <use href="#session-flag" x="462" y="91"/>
  <use href="#session-flag" x="462" y="145"/>
  <use href="#session-flag" x="462" y="199"/>
  <use href="#session-flag" x="462" y="307"/>
  <g font-size="12" fill="#77787b" text-anchor="end">
    <text x="547" y="108">2h</text>
    <text x="547" y="162">5h</text>
    <text x="547" y="216">Yesterday</text>
    <text x="547" y="270">2d</text>
    <text x="547" y="324">3d</text>
    <text x="547" y="378">1w</text>
  </g>
  <g fill="none" stroke="#9c9c9f" stroke-width="1.2" stroke-linejoin="round">
    <path d="M565 99H577V102H565ZM566 102V109H576V102M569 105H573"/>
    <path d="M565 153H577V156H565ZM566 156V163H576V156M569 159H573"/>
    <path d="M565 207H577V210H565ZM566 210V217H576V210M569 213H573"/>
    <path d="M565 261H577V264H565ZM566 264V271H576V264M569 267H573"/>
    <path d="M565 315H577V318H565ZM566 318V325H576V318M569 321H573"/>
    <path d="M565 369H577V372H565ZM566 372V379H576V372M569 375H573"/>
  </g>
  <text x="20" y="449" font-size="12" fill="#77787b">Flagged chats stay marked without hover, so a session is easy to find again later.</text>
</svg>
